<?xml version="1.0" encoding="UTF-8"?>
<svg width="1200pt" height="1200pt" version="1.1" viewBox="0 0 1200 1200" xmlns="http://www.w3.org/2000/svg">
 <path d="m978.42 493.13c-16.715-51.359-68.953-70.414-120.3-53.734-34.922 11.352-148.54 64.945-212.44 114.23 26.879-76.117 42.59-199.75 42.59-236.32 0-54.012-34.246-97.801-88.246-97.801s-88.262 43.789-88.262 97.801c0 36.266 15.469 158.21 41.965 234.46-64.32-48.758-175.52-101.14-210.01-112.34-51.371-16.691-103.6 2.3398-120.29 53.711-16.691 51.371 14.375 97.488 65.746 114.17 35.461 11.531 162.04 35.508 242.59 32.387-67.047 44.75-155.57 138.76-177.52 168.95-31.754 43.727-29.785 99.254 13.922 131.03 43.703 31.754 97.141 16.441 128.9-27.254 21.312-29.316 80.484-137.07 103.86-214.33 23.363 77.258 82.547 184.99 103.85 214.33 31.754 43.715 85.211 58.992 128.9 27.254 43.691-31.738 45.66-87.324 13.906-131.03-21.926-30.191-110.45-124.2-177.5-168.95 80.578 3.1211 207.14-20.855 242.58-32.363 51.363-16.715 82.445-62.82 65.754-114.19z"/>
</svg>
